<svg id="visual" viewBox="0 0 900 600" width="900" height="600" xmlns="http://www.w3.org/2000/svg" xmlns:xlink="http://www.w3.org/1999/xlink" version="1.1"><path d="M0 55L13.7 65C27.3 75 54.7 95 82 98C109.3 101 136.7 87 163.8 89C191 91 218 109 245.2 115C272.3 121 299.7 115 327 103C354.3 91 381.7 73 409 74C436.3 75 463.7 95 491 95C518.3 95 545.7 75 573 69C600.3 63 627.7 71 654.8 75C682 79 709 79 736.2 81C763.3 83 790.7 87 818 91C845.3 95 872.7 99 886.3 101L900 103L900 0L886.3 0C872.7 0 845.3 0 818 0C790.7 0 763.3 0 736.2 0C709 0 682 0 654.8 0C627.7 0 600.3 0 573 0C545.7 0 518.3 0 491 0C463.7 0 436.3 0 409 0C381.7 0 354.3 0 327 0C299.7 0 272.3 0 245.2 0C218 0 191 0 163.8 0C136.7 0 109.3 0 82 0C54.7 0 27.3 0 13.7 0L0 0Z" fill="#6198ff"></path><path d="M0 199L13.7 197C27.3 195 54.7 191 82 182C109.3 173 136.7 159 163.8 161C191 163 218 181 245.2 200C272.3 219 299.7 239 327 235C354.3 231 381.7 203 409 190C436.3 177 463.7 179 491 176C518.3 173 545.7 165 573 161C600.3 157 627.7 157 654.8 153C682 149 709 141 736.2 148C763.3 155 790.7 177 818 198C845.3 219 872.7 239 886.3 249L900 259L900 101L886.3 99C872.7 97 845.3 93 818 89C790.7 85 763.3 81 736.2 79C709 77 682 77 654.8 73C627.7 69 600.3 61 573 67C545.7 73 518.3 93 491 93C463.7 93 436.3 73 409 72C381.7 71 354.3 89 327 101C299.7 113 272.3 119 245.2 113C218 107 191 89 163.8 87C136.7 85 109.3 99 82 96C54.7 93 27.3 73 13.7 63L0 53Z" fill="#3c80ff"></path><path d="M0 343L13.7 340C27.3 337 54.7 331 82 335C109.3 339 136.7 353 163.8 361C191 369 218 371 245.2 368C272.3 365 299.7 357 327 363C354.3 369 381.7 389 409 392C436.3 395 463.7 381 491 372C518.3 363 545.7 359 573 338C600.3 317 627.7 279 654.8 273C682 267 709 293 736.2 321C763.3 349 790.7 379 818 393C845.3 407 872.7 405 886.3 404L900 403L900 257L886.3 247C872.7 237 845.3 217 818 196C790.7 175 763.3 153 736.2 146C709 139 682 147 654.8 151C627.7 155 600.3 155 573 159C545.7 163 518.3 171 491 174C463.7 177 436.3 175 409 188C381.7 201 354.3 229 327 233C299.7 237 272.3 217 245.2 198C218 179 191 161 163.8 159C136.7 157 109.3 171 82 180C54.7 189 27.3 193 13.7 195L0 197Z" fill="#0066ff"></path><path d="M0 385L13.7 390C27.3 395 54.7 405 82 409C109.3 413 136.7 411 163.8 413C191 415 218 421 245.2 417C272.3 413 299.7 399 327 404C354.3 409 381.7 433 409 445C436.3 457 463.7 457 491 456C518.3 455 545.7 453 573 432C600.3 411 627.7 371 654.8 358C682 345 709 359 736.2 382C763.3 405 790.7 437 818 453C845.3 469 872.7 469 886.3 469L900 469L900 401L886.3 402C872.7 403 845.3 405 818 391C790.7 377 763.3 347 736.2 319C709 291 682 265 654.8 271C627.7 277 600.3 315 573 336C545.7 357 518.3 361 491 370C463.7 379 436.3 393 409 390C381.7 387 354.3 367 327 361C299.7 355 272.3 363 245.2 366C218 369 191 367 163.8 359C136.7 351 109.3 337 82 333C54.7 329 27.3 335 13.7 338L0 341Z" fill="#0059dd"></path><path d="M0 601L13.7 601C27.3 601 54.7 601 82 601C109.3 601 136.7 601 163.8 601C191 601 218 601 245.2 601C272.3 601 299.7 601 327 601C354.3 601 381.7 601 409 601C436.3 601 463.7 601 491 601C518.3 601 545.7 601 573 601C600.3 601 627.7 601 654.8 601C682 601 709 601 736.2 601C763.3 601 790.7 601 818 601C845.3 601 872.7 601 886.3 601L900 601L900 467L886.3 467C872.7 467 845.3 467 818 451C790.7 435 763.3 403 736.2 380C709 357 682 343 654.8 356C627.7 369 600.3 409 573 430C545.7 451 518.3 453 491 454C463.7 455 436.3 455 409 443C381.7 431 354.3 407 327 402C299.7 397 272.3 411 245.2 415C218 419 191 413 163.8 411C136.7 409 109.3 411 82 407C54.7 403 27.3 393 13.7 388L0 383Z" fill="#004cbb"></path></svg>